<svg xmlns="http://www.w3.org/2000/svg" viewBox="0 0 64 64" role="img" aria-label="Sony PlayStation Network logo">
  <defs>
    <linearGradient id="psBlue" x1="0" y1="0" x2="1" y2="1">
      <stop offset="0%" stop-color="#3f8cff"/>
      <stop offset="100%" stop-color="#1259d8"/>
    </linearGradient>
  </defs>
  <rect x="4" y="4" width="56" height="56" rx="14" fill="#0f1a2d" stroke="#2e4b79" stroke-width="2"/>
  <rect x="10" y="10" width="44" height="44" rx="11" fill="url(#psBlue)"/>
  <path d="M23 23h11c5 0 8 2.6 8 7.1 0 4.6-3 7.4-8.4 7.4h-3.2V46h-7.4zM30.4 28.5v4.2h2.5c1.1 0 1.7-.8 1.7-2s-.6-2.2-1.8-2.2z" fill="#eaf3ff"/>
  <path d="M26 49.2c3.8-1.1 8.8-2.1 13.5-2.4 3-.2 4.5 2.3 1 3.2-4.8 1.2-10.3 1.7-14.5 1.5z" fill="#d8e8ff"/>
</svg>
