<svg xmlns="http://www.w3.org/2000/svg" viewBox="0 0 64 64" role="img" aria-label="PlayStation Network logo">
  <defs>
    <linearGradient id="psBlue" x1="0" y1="0" x2="1" y2="1">
      <stop offset="0%" stop-color="#2f7dff"/>
      <stop offset="100%" stop-color="#1551c8"/>
    </linearGradient>
  </defs>
  <circle cx="32" cy="32" r="28" fill="#0f1a2d" stroke="#2d4c78" stroke-width="2"/>
  <circle cx="32" cy="32" r="21.5" fill="url(#psBlue)"/>
  <path d="M25.2 19h8.9c5 0 8.2 2.9 8.2 7.5 0 5-3.4 8-9 8h-3V45h-5.1zm5.1 4.5v6.6h2.6c2.6 0 4.2-1.2 4.2-3.3 0-2.1-1.5-3.3-4-3.3z" fill="#eef5ff"/>
  <path d="M20.3 45.8c2.8-.9 7.1-1.8 11.2-2.2 3.1-.3 4.8 2.1 1.6 3.1-4 1.2-8.7 1.9-12.8 1.8z" fill="#d9e8ff"/>
</svg>
